name C:\Users\r0593348\3dpredictsim\Results\Batchsim_tmt_linear\Pog_s1_tmt_aCst_d05_k2000_ig24_act.mot
datacolumns 128
datarows 4
range 1.78140735 1.81703550
endheader
time	pelvis_tilt	pelvis_list	pelvis_rotation	pelvis_tx	pelvis_ty	pelvis_tz	hip_flexion_l	hip_adduction_l	hip_rotation_l	hip_flexion_r	hip_adduction_r	hip_rotation_r	knee_angle_l	knee_angle_r	ankle_angle_l	ankle_angle_r	subtalar_angle_l	subtalar_angle_r	tmt_angle_l	tmt_angle_r	mtp_angle_l	mtp_angle_r	lumbar_extension	lumbar_bending	lumbar_rotation	arm_flex_l	arm_add_l	arm_rot_l	arm_flex_r	arm_add_r	arm_rot_r	elbow_flex_l	elbow_flex_r	pro_sup_l	pro_sup_r	glut_med1_l/activation	glut_med2_l/activation	glut_med3_l/activation	glut_min1_l/activation	glut_min2_l/activation	glut_min3_l/activation	semimem_l/activation	semiten_l/activation	bifemlh_l/activation	bifemsh_l/activation	sar_l/activation	add_long_l/activation	add_brev_l/activation	add_mag1_l/activation	add_mag2_l/activation	add_mag3_l/activation	tfl_l/activation	pect_l/activation	grac_l/activation	glut_max1_l/activation	glut_max2_l/activation	glut_max3_l/activation	iliacus_l/activation	psoas_l/activation	quad_fem_l/activation	gem_l/activation	peri_l/activation	rect_fem_l/activation	vas_med_l/activation	vas_int_l/activation	vas_lat_l/activation	med_gas_l/activation	lat_gas_l/activation	soleus_l/activation	tib_post_l/activation	flex_dig_l/activation	flex_hal_l/activation	tib_ant_l/activation	per_brev_l/activation	per_long_l/activation	per_tert_l/activation	ext_dig_l/activation	ext_hal_l/activation	ercspn_l/activation	intobl_l/activation	extobl_l/activation	glut_med1_r/activation	glut_med2_r/activation	glut_med3_r/activation	glut_min1_r/activation	glut_min2_r/activation	glut_min3_r/activation	semimem_r/activation	semiten_r/activation	bifemlh_r/activation	bifemsh_r/activation	sar_r/activation	add_long_r/activation	add_brev_r/activation	add_mag1_r/activation	add_mag2_r/activation	add_mag3_r/activation	tfl_r/activation	pect_r/activation	grac_r/activation	glut_max1_r/activation	glut_max2_r/activation	glut_max3_r/activation	iliacus_r/activation	psoas_r/activation	quad_fem_r/activation	gem_r/activation	peri_r/activation	rect_fem_r/activation	vas_med_r/activation	vas_int_r/activation	vas_lat_r/activation	med_gas_r/activation	lat_gas_r/activation	soleus_r/activation	tib_post_r/activation	flex_dig_r/activation	flex_hal_r/activation	tib_ant_r/activation	per_brev_r/activation	per_long_r/activation	per_tert_r/activation	ext_dig_r/activation	ext_hal_r/activation	ercspn_r/activation	intobl_r/activation	extobl_r/activation	
          1.78140735	         -2.93017642	          1.25650135	         -7.31207585	          2.22675919	          0.86141043	          0.00172286	         32.23764264	          1.14126752	         -0.41710646	        -14.96250794	         -1.73798962	          7.89754412	        -16.97624403	        -16.77772621	          8.59175006	         -9.24887126	          1.57230428	         13.65765831	          0.01390895	          0.50053443	         -0.09329701	         30.45833961	         -0.47963495	          1.00826670	          2.48898943	        -10.25910376	        -13.50712816	         10.23139894	          4.17865210	        -13.48067588	         17.84149308	         16.30339547	         40.81905317	         86.51662706	         86.51662706	          0.05020021	          0.05363645	          0.05989581	          0.05001092	          0.05000699	          0.05000955	          0.07175241	          0.05989753	          0.20466810	          0.05989236	          0.05000233	          0.06226163	          0.10628090	          0.16432948	          0.15829564	          0.12679259	          0.05000316	          0.05001064	          0.05989682	          0.05989678	          0.05990140	          0.06563174	          0.06000743	          0.05990784	          0.13950274	          0.05000076	          0.05311610	          0.05000223	          0.07351635	          0.09330839	          0.07006774	          0.05989671	          0.05989671	          0.05989672	          0.05989663	          0.05989782	          0.05989749	          0.49604682	          0.30457244	          0.21677644	          0.14421419	          0.52090231	          0.28838399	          0.05561268	          0.12660171	          0.11534873	          0.19549436	          0.08949524	          0.05989621	          0.22307166	          0.14297719	          0.10295199	          0.05000529	          0.05000044	          0.05000041	          0.05001589	          0.10296487	          0.05000030	          0.05000022	          0.05000027	          0.05000074	          0.05000067	          0.19112457	          0.05000114	          0.05000061	          0.05000871	          0.05000334	          0.05000106	          0.35474139	          0.55066161	          0.05000024	          0.05000201	          0.07026071	          0.20753572	          0.09693719	          0.10411696	          0.09593476	          0.15478979	          0.23833319	          0.05989685	          0.16856700	          0.19337848	          0.21470649	          0.05000006	          0.35125596	          0.33505406	          0.05000018	          0.20331392	          0.05000029	          0.05000002	          0.05000004	          0.05000007	
          1.79328340	         -2.92593534	          1.18230021	         -7.49347117	          2.24556016	          0.86019249	          0.00142160	         31.61274227	          1.35368713	         -0.21856149	        -15.22123594	         -1.92658121	          7.67689192	        -16.65853654	        -17.86801436	          8.11084480	        -12.00024160	          1.18786492	         14.10054293	          0.01304555	          0.45937750	         -0.08707142	         31.84797146	         -0.24330928	          0.88124435	          2.57448358	        -11.56790876	        -13.49220936	         10.09488036	          3.79041327	        -13.52373702	         18.06976568	         16.32136905	         41.90500553	         86.51662706	         86.51662706	          0.05000173	          0.05000285	          0.05000053	          0.05989662	          0.05989581	          0.05000557	          0.05989704	          0.05000085	          0.18132035	          0.05000035	          0.05000940	          0.08595499	          0.14779479	          0.13718638	          0.16885867	          0.15444182	          0.05000028	          0.06435776	          0.05000148	          0.05000105	          0.05000430	          0.18557554	          0.05989604	          0.05000990	          0.11645420	          0.18815066	          0.17920575	          0.07175237	          0.21957386	          0.21374858	          0.18645460	          0.05000004	          0.05000007	          0.05000003	          0.05000003	          0.05000112	          0.05000086	          0.67565232	          0.34746594	          0.18096196	          0.52237053	          0.63444026	          0.46559713	          0.05000011	          0.10568337	          0.09628971	          0.16319306	          0.07470813	          0.05000053	          0.18621381	          0.11935328	          0.08594154	          0.05000249	          0.05000025	          0.05000027	          0.05000049	          0.08595240	          0.12321637	          0.21038817	          0.05002391	          0.05000761	          0.05000106	          0.15954523	          0.08841279	          0.05384437	          0.05000427	          0.05000258	          0.05000197	          0.29612769	          0.45967617	          0.07601578	          0.05000512	          0.05865198	          0.17324469	          0.10403830	          0.10261606	          0.08324581	          0.12921395	          0.19895351	          0.05000016	          0.14071476	          0.16142671	          0.17923068	          0.20905365	          0.34902907	          0.30846242	          0.46978727	          0.36506630	          0.17050857	          0.05000039	          0.05000030	          0.06365529	
          1.80515945	         -2.91539826	          1.11070930	         -7.63858798	          2.26459500	          0.85863243	          0.00112799	         30.86322786	          1.57921854	          0.03437217	        -15.29240843	         -2.07816085	          7.45794666	        -16.96663424	        -19.33233092	          7.45872850	        -14.51270192	          0.79976903	         14.51691975	          0.00461350	          0.38247484	         -0.05542125	         32.43305954	          0.00413649	          0.73638882	          2.64765803	        -12.86206222	        -13.48712155	         10.01458311	          3.32928033	        -13.58164551	         18.22940471	         16.31730111	         42.97868943	         86.51662706	         86.51662706	          0.16392582	          0.05000041	          0.14586941	          0.05000021	          0.05000024	          0.05000045	          0.05000057	          0.05000047	          0.15136092	          0.05000012	          0.05000037	          0.07175337	          0.12337521	          0.26798199	          0.24659237	          0.15642570	          0.05000282	          0.05373711	          0.06448156	          0.13374321	          0.13027101	          0.15491692	          0.05000023	          0.05000047	          0.25675469	          0.15706274	          0.14959583	          0.05989694	          0.25761822	          0.25642192	          0.22403039	          0.05000023	          0.05000061	          0.05000006	          0.05989608	          0.05989731	          0.05989695	          0.61298513	          0.38590860	          0.20024872	          0.43606007	          0.57892914	          0.38866685	          0.05000003	          0.08822137	          0.08037982	          0.13622882	          0.06236450	          0.05990214	          0.15544597	          0.09963272	          0.07174173	          0.06376995	          0.05989781	          0.07174714	          0.05000065	          0.07175077	          0.17908131	          0.29296399	          0.30246748	          0.12079361	          0.17194890	          0.13318371	          0.07380502	          0.05990134	          0.05990131	          0.05991727	          0.07175177	          0.24719868	          0.38372418	          0.07175208	          0.06422964	          0.05989665	          0.14461955	          0.09440337	          0.10295740	          0.06949463	          0.10786399	          0.16608053	          0.05000004	          0.11746453	          0.13475433	          0.14961652	          0.39559048	          0.39716754	          0.30967033	          0.70407870	          0.50529495	          0.35073102	          0.07013668	          0.05989686	          0.05395586	
          1.81703550	         -2.90035370	          1.04378188	         -7.74497315	          2.28363854	          0.85674855	          0.00086023	         29.95217896	          1.78659224	          0.33308978	        -15.16427956	         -2.18918772	          7.25115204	        -17.57990403	        -21.19218026	          7.03757781	        -16.45439773	          0.38263660	         14.88210980	         -0.00566544	          0.28930531	         -0.18715091	         31.50633848	          0.24408172	          0.57306942	          2.70491737	        -14.09234801	        -13.50021762	         10.04087529	          2.82935424	        -13.64706483	         18.32323824	         16.25678821	         44.03446209	         86.51662706	         86.51662706	          0.27502335	          0.29081686	          0.38357507	          0.25342886	          0.15289397	          0.25345374	          0.07175274	          0.09098298	          0.12635167	          0.07175221	          0.05000217	          0.05989774	          0.10299007	          0.22370375	          0.20588011	          0.16568832	          0.05000036	          0.05002548	          0.08595108	          0.23698978	          0.19073503	          0.17396572	          0.05000044	          0.05000031	          0.21433148	          0.13111168	          0.30943422	          0.05000024	          0.21505282	          0.24117668	          0.19485536	          0.05000015	          0.05000022	          0.05000008	          0.05000001	          0.05000078	          0.05000054	          0.68990046	          0.32214573	          0.16716181	          0.68525488	          0.67996698	          0.47350412	          0.05555579	          0.08346990	          0.06709870	          0.27120626	          0.05206020	          0.05000460	          0.12976548	          0.08317066	          0.05988824	          0.09416590	          0.05000122	          0.05989260	          0.05000033	          0.05989599	          0.14949194	          0.24576631	          0.25249108	          0.10083571	          0.14353830	          0.11117794	          0.06161879	          0.05000499	          0.05000722	          0.05001821	          0.05989667	          0.20635421	          0.37873633	          0.05989660	          0.05361737	          0.05000037	          0.12072414	          0.08595168	          0.08594923	          0.05801251	          0.09004168	          0.13863914	          0.05000015	          0.09805594	          0.11248905	          0.12489552	          0.33022736	          0.33154785	          0.25851352	          0.66517127	          0.59585476	          0.29278024	          0.09741854	          0.05000014	          0.05000011	
